# File created by Blade
# Date/Time:  Tue Apr 07 20:35:32 2015
# Frame Rate: 120.000 fps
#------------------------------------------------------
:FULLY-SPECIFIED
:DEGREES
926
root 0.766969 32.887737 -2.659413 20.838327 -61.595645 -38.066810
Spine 16.744997 26.109477 26.353601
Head 10.518221 20.088907 -12.223916
LeftShoulder -27.964673 43.446455 9.700606
LeftArm 46.205598 -58.147721 -81.250393
LeftForeArm 2.369520 0.000000 1.329756
LeftHand 10.233150 -0.000000 3.125458
LeftHandThumb1 -26.253704 0.000000 33.147579
RightShoulder 12.708848 14.161974 -23.315178
RightArm 35.831423 -18.674115 82.189246
RightForeArm -1.163955 -0.000000 14.969299
RightHand 0.629591 -0.000000 12.861994
RightHandThumb1 -24.326973 -0.000000 -32.862282
LeftUpLeg 4.448700 2.373070 10.249044
LeftLeg 22.750305 -0.000000 -0.000000
LeftFoot -19.591098 14.607106 -16.295446
LeftToeBase -10.270737 -0.000000 0.000000
RightUpLeg -110.154032 -34.304634 18.362449
RightLeg 76.329593 -0.000000 -0.000000
RightFoot 40.147630 -21.746442 2.441261
RightToeBase 31.415377 -0.000000 -0.000000
927
root 0.768074 32.901346 -2.678587 20.750160 -61.307949 -37.953444
Spine 16.592548 26.082128 26.256405
Head 10.390369 19.882310 -12.060949
LeftShoulder -27.923706 43.358534 9.761099
LeftArm 46.137513 -58.012658 -81.259866
LeftForeArm 2.401704 -0.000000 1.294025
LeftHand 10.191586 -0.000000 2.985597
LeftHandThumb1 -26.253704 0.000000 33.147579
RightShoulder 12.627592 14.080063 -23.301788
RightArm 35.761616 -18.671321 82.092408
RightForeArm -1.131635 -0.000000 14.807503
RightHand 0.509132 -0.000000 12.799490
RightHandThumb1 -24.326973 -0.000000 -32.862282
LeftUpLeg 4.373484 2.375665 10.440144
LeftLeg 22.717888 -0.000000 -0.000000
LeftFoot -19.471399 14.173055 -16.426555
LeftToeBase -10.232361 -0.000000 0.000000
RightUpLeg -109.378072 -34.549054 17.581596
RightLeg 76.148717 -0.000000 -0.000000
RightFoot 40.174655 -21.682363 2.227848
RightToeBase 31.216922 -0.000000 -0.000000
928
root 0.768824 32.916269 -2.696381 20.611563 -61.012167 -37.798646
Spine 16.446724 26.028317 26.133480
Head 10.270405 19.651995 -11.886698
LeftShoulder -27.903041 43.281638 9.803061
LeftArm 45.988302 -57.843083 -81.127154
LeftForeArm 2.312532 0.000000 1.264147
LeftHand 10.199741 -0.000000 2.834207
LeftHandThumb1 -26.253704 0.000000 33.147579
RightShoulder 12.576567 14.023906 -23.287862
RightArm 35.650439 -18.634751 82.003381
RightForeArm -1.148417 -0.000000 14.644833
RightHand 0.601924 -0.000000 12.826091
RightHandThumb1 -24.326973 -0.000000 -32.862282
LeftUpLeg 4.301615 2.426045 10.604273
LeftLeg 22.643336 -0.000000 -0.000000
LeftFoot -19.259569 13.886550 -16.428963
LeftToeBase -10.444337 -0.000000 0.000000
RightUpLeg -108.478993 -34.803275 16.602791
RightLeg 75.909218 -0.000000 -0.000000
RightFoot 40.173831 -21.581594 2.097940
RightToeBase 31.166800 -0.000000 -0.000000
929
root 0.764814 32.935850 -2.715522 20.434979 -60.652419 -37.654717
Spine 16.324328 25.933480 26.045798
Head 10.153064 19.403032 -11.687724
LeftShoulder -27.889088 43.261936 9.818988
LeftArm 46.022116 -57.702260 -81.122085
LeftForeArm 2.309198 -0.000000 1.242150
LeftHand 10.179206 0.000000 2.908379
LeftHandThumb1 -26.253704 0.000000 33.147579
RightShoulder 12.518814 13.999280 -23.274596
RightArm 35.473360 -18.585386 81.931842
RightForeArm -1.239336 -0.000000 14.510918
RightHand 0.581573 -0.000000 12.921814
RightHandThumb1 -24.326973 -0.000000 -32.862282
LeftUpLeg 4.282022 2.393504 10.819132
LeftLeg 22.565702 -0.000000 -0.000000
LeftFoot -19.060478 13.468294 -16.555120
LeftToeBase -10.488022 -0.000000 0.000000
RightUpLeg -107.635148 -35.116170 15.746158
RightLeg 75.695322 -0.000000 -0.000000
RightFoot 40.068226 -21.879599 1.980003
RightToeBase 31.199114 -0.000000 -0.000000
930
root 0.759796 32.958627 -2.734779 20.242843 -60.272043 -37.505528
Spine 16.207774 25.834077 25.960180
Head 10.032071 19.133171 -11.493090
LeftShoulder -27.979855 43.506488 9.649133
LeftArm 46.598763 -57.639642 -81.546242
LeftForeArm 2.283186 -0.000000 1.246554
LeftHand 10.166772 -0.000000 2.911763
LeftHandThumb1 -26.253704 0.000000 33.147579
RightShoulder 12.460673 13.912848 -23.256043
RightArm 35.361448 -18.598849 81.754434
RightForeArm -1.312920 -0.000000 14.420543
RightHand 0.554569 -0.000000 12.856428
RightHandThumb1 -24.326973 -0.000000 -32.862282
LeftUpLeg 4.274111 2.373005 11.044159
LeftLeg 22.472647 -0.000000 -0.000000
LeftFoot -18.794889 13.059905 -16.565041
LeftToeBase -10.513955 -0.000000 0.000000
RightUpLeg -106.802242 -35.470318 14.911644
RightLeg 75.473831 -0.000000 -0.000000
RightFoot 39.989133 -22.193917 1.893474
RightToeBase 31.165602 -0.000000 -0.000000
931
root 0.761088 32.980021 -2.756114 20.059966 -59.899780 -37.303934
Spine 16.049978 25.782138 25.824657
Head 9.903774 18.832705 -11.278706
LeftShoulder -27.917697 43.481756 9.691844
LeftArm 46.647266 -57.563732 -81.504095
LeftForeArm 2.331637 -0.000000 1.262624
LeftHand 10.203162 -0.000000 2.883338
LeftHandThumb1 -26.253704 0.000000 33.147579
RightShoulder 12.397705 13.837990 -23.265932
RightArm 35.195211 -18.536357 81.640760
RightForeArm -1.514642 -0.000000 14.352221
RightHand 0.646414 0.000000 12.894690
RightHandThumb1 -24.326973 -0.000000 -32.862282
LeftUpLeg 4.192847 2.288230 11.203491
LeftLeg 22.373590 -0.000000 -0.000000
LeftFoot -18.518930 12.791058 -16.550467
LeftToeBase -10.598864 -0.000000 0.000000
RightUpLeg -105.937926 -35.787874 13.948644
RightLeg 75.212007 -0.000000 -0.000000
RightFoot 39.893715 -22.477889 1.873909
RightToeBase 31.323409 -0.000000 -0.000000
932
root 0.769478 33.000312 -2.775265 19.895870 -59.536445 -37.008385
Spine 15.792428 25.737408 25.583943
Head 9.723550 18.551503 -11.104179
LeftShoulder -27.947824 43.417244 9.665642
LeftArm 46.673642 -57.480169 -81.370768
LeftForeArm 2.314646 -0.000000 1.307989
LeftHand 10.161169 -0.000000 2.741688
LeftHandThumb1 -26.253704 0.000000 33.147579
RightShoulder 12.306118 13.697576 -23.279699
RightArm 35.150894 -18.559385 81.438837
RightForeArm -1.616798 -0.000000 14.297160
RightHand 0.557888 -0.000000 12.838954
RightHandThumb1 -24.326973 -0.000000 -32.862282
LeftUpLeg 3.993397 2.217493 11.286730
LeftLeg 22.278520 -0.000000 -0.000000
LeftFoot -18.198527 12.606569 -16.461537
LeftToeBase -10.749437 -0.000000 0.000000
RightUpLeg -105.287082 -36.119219 13.120263
RightLeg 74.944717 -0.000000 -0.000000
RightFoot 39.890728 -22.728817 1.755398
RightToeBase 31.434159 -0.000000 -0.000000
